<svg xmlns="http://www.w3.org/2000/svg" viewBox="0 0 256 175">
  <g fill="none" fill-rule="evenodd" transform="translate(0 -1)">
    <polygon class="svg-bg" fill="#FFE464" points="11.319 95.998 127.999 23.074 244.679 95.998 127.999 168.922"/>
    <path fill="#3D3649" d="M0,95.9972 L127.996,176.0012 L256,95.9972 L127.996,15.9972 L0,95.9972 Z M22.64,95.9972 L127.996,30.1492 L233.36,95.9972 L127.996,161.8492 L22.64,95.9972 Z"/>
    <polygon fill="#3D3649" fill-rule="nonzero" points="112.999 115.498 112.999 111.498 142.999 111.498 142.999 115.498"/>
    <path fill="#3D3649" fill-rule="nonzero" d="M100.9992 95.4984C100.9992 97.1552542 99.6560542 98.4984 97.9992 98.4984 96.3423458 98.4984 94.9992 97.1552542 94.9992 95.4984 94.9992 92.1856665 92.3127583 89.4984 88.9992 89.4984 85.6856417 89.4984 82.9992 92.1856665 82.9992 95.4984 82.9992 97.1552542 81.6560542 98.4984 79.9992 98.4984 78.3423458 98.4984 76.9992 97.1552542 76.9992 95.4984 76.9992 88.8723702 82.3715208 83.4984 88.9992 83.4984 95.6268792 83.4984 100.9992 88.8723702 100.9992 95.4984zM178.9992 95.4984C178.9992 97.1552542 177.656054 98.4984 175.9992 98.4984 174.342346 98.4984 172.9992 97.1552542 172.9992 95.4984 172.9992 92.1856665 170.312758 89.4984 166.9992 89.4984 163.685642 89.4984 160.9992 92.1856665 160.9992 95.4984 160.9992 97.1552542 159.656054 98.4984 157.9992 98.4984 156.342346 98.4984 154.9992 97.1552542 154.9992 95.4984 154.9992 88.8723702 160.371521 83.4984 166.9992 83.4984 173.626879 83.4984 178.9992 88.8723702 178.9992 95.4984z"/>
    <polygon fill="#3D3649" fill-rule="nonzero" points="127.999 6.998 127.999 .998 222.999 .998 222.999 6.998"/>
    <polygon fill="#3D3649" fill-rule="nonzero" points="33.001 6.998 33.001 .998 128.001 .998 128.001 6.998"/>
    <polygon fill="#3D3649" fill-rule="nonzero" points="124.999 3.998 130.999 3.998 130.999 24.838 124.999 24.838"/>
  </g>
</svg>
